<svg width="24" height="24" viewBox="0 0 24 24" fill="none" xmlns="http://www.w3.org/2000/svg">
  <path d="M7 6.5L9 8.5L13 4.5" stroke="currentColor" stroke-width="1.8" stroke-linecap="round" stroke-linejoin="round"/>
  <path d="M7 13L9 15L13 11" stroke="currentColor" stroke-width="1.8" stroke-linecap="round" stroke-linejoin="round"/>
  <path d="M15.5 7H18" stroke="currentColor" stroke-width="1.8" stroke-linecap="round"/>
  <path d="M15.5 13.5H18" stroke="currentColor" stroke-width="1.8" stroke-linecap="round"/>
  <path d="M6 20H18C19.6569 20 21 18.6569 21 17V7C21 5.34315 19.6569 4 18 4H16.5M6 20C4.34315 20 3 18.6569 3 17V7C3 5.34315 4.34315 4 6 4H10.5M6 20C7.65685 20 9 18.6569 9 17V4" stroke="currentColor" stroke-width="1.8" stroke-linecap="round" stroke-linejoin="round"/>
</svg>
